<?xml version="1.0" encoding="UTF-8"?>
<svg version="1.1" xmlns="http://www.w3.org/2000/svg" width="1024" height="1024">
<path d="M0 0 C1.30784774 0.71465076 2.60438712 1.45027473 3.890625 2.203125 C4.6132251 2.6057959 5.3358252 3.0084668 6.08032227 3.42333984 C8.44487957 4.74789377 10.79258886 6.09953439 13.140625 7.453125 C14.75838986 8.36846955 16.37689166 9.28251276 17.99609375 10.1953125 C23.39523787 13.25081724 28.76893242 16.3496817 34.140625 19.453125 C36.18486084 20.63287313 38.22913271 21.81255885 40.2734375 22.9921875 C43.51158397 24.86099819 46.7496307 26.72998021 49.98730469 28.59960938 C72.4192249 41.54742151 94.90896504 54.39999586 117.52734375 67.01953125 C127.22505001 72.43096656 136.90969549 77.84287884 146.44165039 83.54223633 C150.92744104 86.20436696 155.46989996 88.75300374 160.04296875 91.26171875 C160.65158752 91.59632614 161.2602063 91.93093353 161.88726807 92.27568054 C164.93804463 93.95198186 167.99272606 95.62041535 171.05419922 97.27709961 C172.17197754 97.88948486 173.28975586 98.50187012 174.44140625 99.1328125 C175.94441284 99.94854736 175.94441284 99.94854736 177.4777832 100.78076172 C182.04539164 103.649389 184.52612818 106.29262919 186.140625 111.453125 C186.32927604 114.29544467 186.41495681 117.03823194 186.40132141 119.87927246 C186.40514696 120.72531209 186.40897251 121.57135173 186.41291398 122.44302893 C186.42322868 125.2765357 186.41925475 128.10983926 186.4152832 130.94335938 C186.41963047 132.97536914 186.42481367 135.00737726 186.43077087 137.03938293 C186.44416925 142.55786007 186.44473869 148.07626875 186.44220757 153.59475899 C186.44113861 158.19985745 186.44601922 162.80494202 186.450813 167.41003752 C186.4619107 178.27190405 186.46234384 189.13373601 186.45629883 199.99560547 C186.45025534 211.20701008 186.46257902 222.41828931 186.4838689 233.62967253 C186.50147017 243.25186066 186.50748866 252.87400883 186.50423115 262.49621248 C186.50241609 268.24475799 186.50507693 273.99321403 186.51894569 279.741745 C186.53149571 285.14588124 186.52960671 290.54982156 186.51653481 295.9539547 C186.51416345 297.93853 186.51692362 299.92311897 186.52515793 301.9076786 C186.53557966 304.61434064 186.52756166 307.32033966 186.5148468 310.02697754 C186.52222109 310.81442903 186.52959537 311.60188052 186.53719312 312.41319418 C186.49233433 316.94439141 185.91795579 319.83537278 183.140625 323.453125 C181.35571289 324.97924805 181.35571289 324.97924805 179.30078125 326.27734375 C178.5030127 326.78185059 177.70524414 327.28635742 176.88330078 327.80615234 C171.49454141 331.04209419 166.04829592 334.17040925 160.578125 337.265625 C159.3197519 337.98101226 158.0615337 338.69667206 156.8034668 339.41259766 C149.74640034 343.42521405 142.67309474 347.40863145 135.58789062 351.37133789 C130.33266285 354.32074334 125.14791537 357.38414749 119.96362305 360.45605469 C114.10959482 363.91218163 108.19417573 367.25183361 102.265625 370.578125 C92.26173474 376.19489343 82.38228054 382.00395553 72.53955078 387.89697266 C66.67252561 391.40085348 60.76834353 394.79016433 54.75390625 398.03442383 C50.55270297 400.31517797 46.41085422 402.69760444 42.265625 405.078125 C41.37359375 405.58883545 40.4815625 406.0995459 39.5625 406.62573242 C35.82110829 408.76792808 32.08129385 410.91285603 28.34277344 413.06005859 C23.86739846 415.63036465 19.3886373 418.19394804 14.8984375 420.73828125 C12.01332392 422.37378786 9.15414212 424.03906065 6.3203125 425.76171875 C-0.32501994 429.66565518 -6.08436788 432.26618102 -13.859375 430.453125 C-20.13971845 427.79986616 -26.02182397 424.15780127 -31.921875 420.765625 C-32.83565918 420.24250732 -33.74944336 419.71938965 -34.69091797 419.18041992 C-40.95512783 415.58230953 -47.17403017 411.9152915 -53.32836914 408.13208008 C-55.83316134 406.60351828 -58.06157365 405.38572545 -60.859375 404.453125 C-60.859375 403.793125 -60.859375 403.133125 -60.859375 402.453125 C-61.42011719 402.3396875 -61.98085938 402.22625 -62.55859375 402.109375 C-70.65952926 399.79875163 -78.13557843 394.11539338 -85.31860352 389.76708984 C-89.73748402 387.10045661 -94.21779346 384.59345921 -98.765625 382.15234375 C-102.75177853 379.96297912 -106.6788854 377.67804108 -110.609375 375.390625 C-117.74955974 371.23882429 -124.91634693 367.13770166 -132.109375 363.078125 C-133.54772705 362.26625732 -133.54772705 362.26625732 -135.01513672 361.43798828 C-138.9585029 359.21364325 -142.90299262 356.99130489 -146.84863281 354.77099609 C-157.27401766 348.90394803 -167.69547683 343.03831533 -177.97509766 336.91821289 C-181.23554524 334.97955761 -184.50742957 333.08221358 -187.83984375 331.26953125 C-188.47591553 330.91995361 -189.1119873 330.57037598 -189.76733398 330.21020508 C-191.47516319 329.27650124 -193.19041413 328.35640736 -194.90625 327.4375 C-198.70938617 324.88195348 -202.21315384 322.14203068 -203.31846142 317.54288101 C-203.4971279 315.3062511 -203.51648648 313.11903629 -203.48083496 310.87548828 C-203.48722378 310.02521624 -203.4936126 309.17494419 -203.50019503 308.29890633 C-203.51542641 305.456601 -203.49499628 302.61569376 -203.47460938 299.7734375 C-203.47811113 297.73304788 -203.48377031 295.69266098 -203.49142456 293.65228271 C-203.50567429 288.11504035 -203.48860884 282.57829445 -203.46513939 277.04109955 C-203.44503505 271.24631432 -203.45090973 265.4515498 -203.45324707 259.65673828 C-203.45319349 249.92537242 -203.43343385 240.19420069 -203.40136719 230.46289062 C-203.3644743 219.21227216 -203.35569163 207.96190802 -203.3626647 196.71123695 C-203.36897003 185.88832795 -203.3582148 175.06550615 -203.33869934 164.24261475 C-203.33052478 159.63668576 -203.32781591 155.03080135 -203.32939148 150.42486572 C-203.33027045 145.00097902 -203.31605064 139.57733399 -203.29016495 134.15351105 C-203.28300306 132.16291729 -203.28091963 130.17229783 -203.28428268 128.18169403 C-203.28799769 125.46445443 -203.27324912 122.74792002 -203.25378418 120.03076172 C-203.25911211 119.24301424 -203.26444003 118.45526676 -203.26992941 117.64364815 C-203.21052946 112.83746969 -202.40033633 109.53939355 -199.859375 105.453125 C-197.765625 103.546875 -197.765625 103.546875 -195.359375 101.953125 C-194.19921875 101.16421875 -194.19921875 101.16421875 -193.015625 100.359375 C-189.36379039 98.15381152 -185.63541947 96.12388851 -181.88330078 94.09472656 C-176.74394613 91.30472005 -171.64746974 88.43819815 -166.546875 85.578125 C-164.88797241 84.64806641 -164.88797241 84.64806641 -163.19555664 83.69921875 C-153.52708594 78.27389941 -143.88430705 72.81204957 -134.31640625 67.2109375 C-124.38204509 61.39579843 -114.44073888 55.61499958 -104.35839844 50.05981445 C-96.69662606 45.83070188 -89.1376465 41.42944863 -81.57324219 37.02929688 C-65.04480019 27.4298347 -48.47256975 17.90510834 -31.859375 8.453125 C-31.06660156 8.00114746 -30.27382813 7.54916992 -29.45703125 7.08349609 C-27.21783006 5.80787794 -24.97652265 4.53605537 -22.734375 3.265625 C-22.07679199 2.89066895 -21.41920898 2.51571289 -20.74169922 2.12939453 C-14.01383262 -1.66862367 -7.29361116 -3.47568332 0 0 Z " fill="#3F1216" transform="translate(520.859375,298.546875)"/>
<path d="M0 0 C2.62672591 1.1184604 5.08023437 2.41907188 7.57226562 3.81445312 C9.21787476 4.73194336 9.21787476 4.73194336 10.89672852 5.66796875 C12.08165117 6.33509432 13.26646295 7.00241684 14.45117188 7.66992188 C15.67814371 8.3570572 16.90527766 9.04390312 18.13256836 9.73046875 C30.9637022 16.91807928 43.72806765 24.2205755 56.45898438 31.58398438 C58.70632343 32.88356174 60.95371971 34.18304013 63.20117188 35.48242188 C64.31226318 36.12493896 65.42335449 36.76745605 66.56811523 37.42944336 C73.42979051 41.38956954 80.32726994 45.2732096 87.26855469 49.09155273 C93.38958886 52.47470221 99.4211131 56.00269027 105.45117188 59.54492188 C118.51130065 67.2142605 131.74672124 74.55380496 145.01367188 81.85742188 C142.09935165 85.02619081 139.22996729 87.05445023 135.45507812 89.10742188 C133.80886475 90.01077271 133.80886475 90.01077271 132.12939453 90.93237305 C131.55022278 91.24612885 130.97105103 91.55988464 130.37432861 91.88314819 C127.92846454 93.20836137 125.49102889 94.54873336 123.05310059 95.88847351 C121.81432536 96.56914599 120.57514749 97.24908621 119.33557129 97.92829895 C113.90213524 100.90787414 108.51232597 103.95914797 103.13867188 107.04492188 C102.29336914 107.52985107 101.44806641 108.01478027 100.57714844 108.5144043 C98.89118144 109.48213641 97.20546862 110.45031147 95.52001953 111.41894531 C93.00325454 112.86340073 90.48363023 114.30272758 87.96289062 115.74023438 C78.19189366 121.31247198 68.4401172 126.91683884 58.70117188 132.54492188 C49.78584272 137.69532507 40.85011296 142.80370384 31.86132812 147.82470703 C29.21581188 149.30337163 26.57309887 150.78699467 23.93139648 152.27246094 C22.58695463 153.02767508 21.24144006 153.78098324 19.89477539 154.53222656 C16.58724347 156.38244509 13.31146771 158.26860362 10.07226562 160.23632812 C9.44143066 160.61394287 8.8105957 160.99155762 8.16064453 161.38061523 C6.43479689 162.41718036 4.71804221 163.46884219 3.00195312 164.52148438 C-0.47524878 166.07599817 -1.41119629 165.87832026 -4.98632812 164.85742188 C-7.48388672 163.66503906 -7.48388672 163.66503906 -10.13476562 162.15429688 C-11.12806885 161.59291016 -12.12137207 161.03152344 -13.14477539 160.453125 C-14.20623779 159.84404297 -15.2677002 159.23496094 -16.36132812 158.60742188 C-18.02603149 157.66286133 -18.02603149 157.66286133 -19.72436523 156.69921875 C-22.02755673 155.39198869 -24.32922133 154.08206495 -26.62939453 152.76953125 C-29.71507784 151.01192604 -32.80746808 149.26716864 -35.90429688 147.52929688 C-45.63393687 142.06522084 -55.3041062 136.51277536 -64.92382812 130.85742188 C-74.00406432 125.52202482 -83.19937021 120.44486484 -92.48046875 115.46850586 C-98.86762013 112.03431112 -105.15202241 108.4745611 -111.37524414 104.75292969 C-119.05900149 100.17553009 -126.88215177 95.84716374 -134.69897461 91.50219727 C-135.72966064 90.92848389 -136.76034668 90.35477051 -137.82226562 89.76367188 C-138.74571777 89.25126953 -139.66916992 88.73886719 -140.62060547 88.2109375 C-142.45131185 87.16352407 -144.23139997 86.02737398 -145.98632812 84.85742188 C-145.98632812 84.19742188 -145.98632812 83.53742188 -145.98632812 82.85742188 C-144.1640625 81.56738281 -144.1640625 81.56738281 -141.58007812 80.09179688 C-140.62109619 79.53878906 -139.66211426 78.98578125 -138.67407227 78.41601562 C-137.6221167 77.81917969 -136.57016113 77.22234375 -135.48632812 76.60742188 C-133.26611793 75.33165532 -131.04607021 74.055606 -128.82617188 72.77929688 C-127.11469971 71.79993164 -127.11469971 71.79993164 -125.36865234 70.80078125 C-121.22516742 68.42008687 -117.10444082 66.00196927 -112.984375 63.58105469 C-102.84425038 57.6271891 -92.62460306 51.83146733 -82.35083008 46.11181641 C-74.08035924 41.49696979 -65.89080557 36.75359487 -57.72021484 31.96459961 C-50.54070711 27.75760832 -43.3363963 23.59787342 -36.09692383 19.49487305 C-31.65277434 16.97171848 -27.22970743 14.41889923 -22.83612061 11.8084259 C-20.4545021 10.39430204 -18.06764483 8.98914283 -15.68060303 7.584198 C-13.9532634 6.56233525 -12.23362777 5.52748565 -10.51416016 4.49243164 C-8.93610596 3.56515259 -8.93610596 3.56515259 -7.32617188 2.61914062 C-6.391521 2.06186279 -5.45687012 1.50458496 -4.49389648 0.93041992 C-1.98632812 -0.14257812 -1.98632812 -0.14257812 0 0 Z " fill="#D3252E" transform="translate(513.986328125,333.142578125)"/>
<path d="M0 0 C0 52.14 0 104.28 0 158 C-8.91 162.95 -17.82 167.9 -27 173 C-39.26707617 180.17778144 -39.26707617 180.17778144 -51.45263672 187.49169922 C-56.63361461 190.63332348 -61.87916961 193.60653991 -67.20996094 196.48632812 C-71.87909365 199.01945928 -76.50128917 201.63513249 -81.125 204.25 C-82.12998535 204.8179126 -83.1349707 205.3858252 -84.17041016 205.97094727 C-89.93833596 209.23913215 -95.6752037 212.55209793 -101.375 215.9375 C-116.04543635 224.64558123 -131.02480965 232.83171435 -146 241 C-146 188.53 -146 136.06 -146 82 C-136.1 76.555 -136.1 76.555 -126 71 C-122.090746 68.74716863 -118.19389886 66.48622011 -114.3125 64.1875 C-105.058995 58.74745116 -95.72781008 53.46482533 -86.34790039 48.24633789 C-79.26181836 44.29373333 -72.24252537 40.24051081 -65.25 36.125 C-55.65607531 30.48217236 -45.94907527 25.07255371 -36.18981934 19.72360229 C-25.3844258 13.7990926 -14.63370072 7.78166531 -4.1875 1.23828125 C-2 0 -2 0 0 0 Z " fill="#D3252E" transform="translate(673,445)"/>
<path d="M0 0 C3.66908229 1.19386766 6.99509168 2.39187384 10.3359375 4.328125 C11.13966797 4.79057617 11.94339844 5.25302734 12.77148438 5.72949219 C13.63064453 6.23125977 14.48980469 6.73302734 15.375 7.25 C16.75268555 8.04519043 16.75268555 8.04519043 18.15820312 8.85644531 C23.01584707 11.66523134 27.85735575 14.50122157 32.6953125 17.34375 C44.2303422 24.11594765 55.83752121 30.71902925 67.56271362 37.1541748 C77.82074839 42.78419562 88.00877358 48.52449032 98.15039062 54.36181641 C103.26128181 57.29996581 108.37974062 60.22488729 113.49801636 63.15014648 C115.23480118 64.14307902 116.97105092 65.13694734 118.70727539 66.13085938 C127.44848999 71.12985118 136.22282872 76.06284116 145 81 C145 132.81 145 184.62 145 238 C141.05409919 236.42163967 137.71088023 234.79341559 134.0546875 232.69140625 C133.49204193 232.36908524 132.92939636 232.04676422 132.34970093 231.7146759 C130.52296425 230.66711178 128.6989501 229.61490718 126.875 228.5625 C125.60137757 227.83064721 124.32761333 227.09904115 123.05371094 226.36767578 C119.36663141 224.24945387 115.68307778 222.12517224 112 220 C110.62279785 219.20650146 110.62279785 219.20650146 109.21777344 218.39697266 C101.84206654 214.14629059 94.48174139 209.86989858 87.13671875 205.56640625 C73.63789548 197.66124361 73.63789548 197.66124361 60 190 C52.08804698 185.64748277 44.28654329 181.11751939 36.49584961 176.55200195 C30.9161524 173.28283231 25.32829811 170.02911223 19.72265625 166.8046875 C19.12218475 166.45917343 18.52171326 166.11365936 17.90304565 165.75767517 C14.97434438 164.07304309 12.04445879 162.39052833 9.11328125 160.71020508 C7.54320312 159.80757935 7.54320312 159.80757935 5.94140625 158.88671875 C5.01013916 158.35264404 4.07887207 157.81856934 3.11938477 157.26831055 C1 156 1 156 0 155 C-0.09672695 153.00038545 -0.1218703 150.99729807 -0.12025452 148.99534607 C-0.12162918 147.68977753 -0.12300385 146.38420898 -0.12442017 145.03907776 C-0.12088055 143.57870461 -0.11724573 142.11833169 -0.11352539 140.65795898 C-0.11324353 139.13073732 -0.11340123 137.60351553 -0.1139679 136.07629395 C-0.11425591 131.91738312 -0.10835855 127.75850089 -0.10139394 123.59959674 C-0.09516106 119.25805476 -0.09455665 114.91651219 -0.09336853 110.57496643 C-0.09025502 102.34786418 -0.08204137 94.12077514 -0.07201904 85.89367872 C-0.06085851 76.52986936 -0.05534761 67.16605938 -0.05032361 57.80224502 C-0.03985877 38.53482251 -0.02225895 19.26741231 0 0 Z " fill="#D3252E" transform="translate(351,446)"/>
<path d="M0 0 C1.875 0.1875 1.875 0.1875 4 1 C6.3806546 5.31161276 6.27600237 9.62715847 6.24050903 14.42182922 C6.24221788 15.26731313 6.24392673 16.11279704 6.24568737 16.98390168 C6.24898006 19.8152819 6.23798216 22.64642483 6.22705078 25.4777832 C6.22648662 27.5080515 6.22680332 29.5383202 6.22793579 31.56858826 C6.22851011 37.08054877 6.21674289 42.59242242 6.20278788 48.10436273 C6.19029379 53.8645892 6.18911106 59.62481761 6.18673706 65.38505554 C6.18051841 76.29302618 6.16410236 87.20095678 6.14403808 98.10890979 C6.12169108 110.52716356 6.11068866 122.94541924 6.10064721 135.36368811 C6.07973649 160.90914762 6.044553 186.45457157 6 212 C5.34 212 4.68 212 4 212 C3.505 212.99 3.505 212.99 3 214 C2.99668985 212.93355444 2.99337971 211.86710888 2.98996925 210.76834679 C2.90900498 184.82930916 2.81669859 158.89033084 2.71247292 132.95137596 C2.66233342 120.40753781 2.6158906 107.86370623 2.578125 95.31982422 C2.54520236 84.38764237 2.50536955 73.45551138 2.45720994 62.52338564 C2.43194775 56.73397007 2.41016556 50.94458822 2.39665604 45.15513229 C2.38383326 39.70674385 2.3617763 34.25847108 2.33261681 28.81014633 C2.32354277 26.80988312 2.3178512 24.80960127 2.31578636 22.80931854 C2.31246265 20.07875134 2.29698203 17.34851188 2.2784729 14.61801147 C2.28040763 13.82617128 2.28234237 13.03433108 2.28433573 12.21849573 C2.23924902 7.77056044 1.65061538 4.13474567 0 0 Z " fill="#210104" transform="translate(701,404)"/>
<path d="M0 0 C0.66 0 1.32 0 2 0 C2 51.15 2 102.3 2 155 C1.34 155 0.68 155 0 155 C-0.15375021 134.93820636 -0.30178745 114.87637839 -0.4429636 94.81449223 C-0.5086436 85.50008506 -0.57621572 76.1856987 -0.64819336 66.87133789 C-0.71090091 58.75597078 -0.77010815 50.6405871 -0.82505554 42.52516359 C-0.85429196 38.22538521 -0.88531944 33.9256361 -0.92053413 29.62590218 C-0.95358528 25.58359959 -0.98197656 21.54129177 -1.00670624 17.49892998 C-1.01664666 16.01094677 -1.02832796 14.52297407 -1.04183006 13.03501892 C-1.05993137 11.01227867 -1.07131322 8.98948152 -1.08229065 6.96669006 C-1.09058679 5.8319629 -1.09888292 4.69723574 -1.10743046 3.5281229 C-1 1 -1 1 0 0 Z " fill="#E8272F" transform="translate(671,445)"/>
<path d="M0 0 C-0.64735107 0.36125977 -1.29470215 0.72251953 -1.96166992 1.09472656 C-5.03754836 2.8120762 -8.1126363 4.53083413 -11.1875 6.25 C-12.88289917 7.19758179 -12.88289917 7.19758179 -14.61254883 8.16430664 C-20.95144291 11.71318044 -27.26989067 15.29419452 -33.56298828 18.92382812 C-42.24004568 23.92827053 -50.95793805 28.68412505 -60 33 C-60.495 31.515 -60.495 31.515 -61 30 C-59.90945313 29.46890625 -58.81890625 28.9378125 -57.6953125 28.390625 C-52.3149016 25.69923704 -47.10188606 22.7257431 -41.875 19.75 C-40.86107178 19.17515869 -39.84714355 18.60031738 -38.80249023 18.00805664 C-33.79205598 15.16531086 -28.79003246 12.3084434 -23.79711914 9.43505859 C-4.67886239 -1.5596208 -4.67886239 -1.5596208 0 0 Z " fill="#3A2829" transform="translate(577,696)"/>
<path d="M0 0 C4.86187839 1.42208082 8.87461761 3.48949973 13.1875 6.0625 C17.91890802 8.88870921 17.91890802 8.88870921 23 11 C23.33 10.01 23.66 9.02 24 8 C24.66 8.33 25.32 8.66 26 9 C26.625 11.5625 26.625 11.5625 27 14 C29.475 14.495 29.475 14.495 32 15 C32 15.99 32 16.98 32 18 C32.99 18.33 33.98 18.66 35 19 C34.01 19.495 34.01 19.495 33 20 C30.38964844 18.80004883 30.38964844 18.80004883 27.109375 16.95703125 C26.52714172 16.63216232 25.94490845 16.3072934 25.34503174 15.97257996 C24.10893918 15.28095871 22.87500392 14.58547012 21.64306641 13.88647461 C19.77558868 12.82701697 17.90224405 11.77867658 16.02734375 10.73242188 C10.5585021 7.66416909 5.12994588 4.61419242 0 1 C0 0.67 0 0.34 0 0 Z " fill="#2F1013" transform="translate(538,346)"/>
<path d="M0 0 C1.29203237 2.58406475 1 2.92893377 1 6 C0 8.1875 0 8.1875 -1 10 C-1.66 9.67 -2.32 9.34 -3 9 C-3 8.34 -3 7.68 -3 7 C-3.98742187 7.37253906 -4.97484375 7.74507813 -5.9921875 8.12890625 C-7.28631113 8.60716933 -8.58059011 9.0850122 -9.875 9.5625 C-10.52597656 9.80935547 -11.17695313 10.05621094 -11.84765625 10.31054688 C-13.54497665 10.93173115 -15.27156776 11.47152252 -17 12 C-17.66 11.67 -18.32 11.34 -19 11 C-12.73 7.37 -6.46 3.74 0 0 Z " fill="#3F1D1E" transform="translate(358,382)"/>
<path d="M0 0 C-2.89306764 1.6299605 -5.78992283 3.25307168 -8.6875 4.875 C-9.50412109 5.33519531 -10.32074219 5.79539062 -11.16210938 6.26953125 C-15.03436082 8.43297538 -18.80487311 10.51333589 -23 12 C-23.33 11.01 -23.66 10.02 -24 9 C-22.865625 8.443125 -21.73125 7.88625 -20.5625 7.3125 C-16.6487372 5.36604603 -12.85708652 3.24611321 -9.078125 1.05078125 C-5.54611856 -0.7351393 -3.82179011 -1.27393004 0 0 Z " fill="#361F21" transform="translate(540,717)"/>
<path d="M0 0 C-8.25 4.62 -16.5 9.24 -25 14 C-25.33 13.34 -25.66 12.68 -26 12 C-24.66666667 11 -23.33333333 10 -22 9 C-21.38382813 8.52304687 -20.76765625 8.04609375 -20.1328125 7.5546875 C-6.70344828 -2.23448276 -6.70344828 -2.23448276 0 0 Z " fill="#3F2C2E" transform="translate(692,630)"/>
<path d="M0 0 C-1.875 6.75 -1.875 6.75 -3 9 C-7 6.33333333 -11 3.66666667 -15 1 C-13.7934375 1.2475 -13.7934375 1.2475 -12.5625 1.5 C-10.2715557 2.03191839 -10.2715557 2.03191839 -9 2 C-8.67 1.01 -8.34 0.02 -8 -1 C-3.375 -2.25 -3.375 -2.25 0 0 Z " fill="#431318" transform="translate(456,690)"/>
<path d="M0 0 C5.51568187 1.53311285 10.02034852 4.18752444 14.875 7.125 C16.050625 7.82689453 16.050625 7.82689453 17.25 8.54296875 C19.16982472 9.69018108 21.08630561 10.8426007 23 12 C20.04335481 13.4783226 17.25770263 13.06032783 14 13 C14 12.34 14 11.68 14 11 C13.34 11 12.68 11 12 11 C11.77570313 10.40574219 11.55140625 9.81148438 11.3203125 9.19921875 C9.61274767 6.35496135 7.75927971 5.41076896 4.875 3.8125 C3.23778684 2.89649547 1.60895408 1.96477874 0 1 C0 0.67 0 0.34 0 0 Z " fill="#2F1012" transform="translate(482,483)"/>
<path d="M0 0 C6.75 0.75 6.75 0.75 9 3 C9.33 2.34 9.66 1.68 10 1 C10.99 1 11.98 1 13 1 C13 1.66 13 2.32 13 3 C14.32 3 15.64 3 17 3 C17.66 4.65 18.32 6.3 19 8 C17.02 7.34 15.04 6.68 13 6 C12.67 6.66 12.34 7.32 12 8 C9.99743426 6.85865673 7.99800203 5.71181367 6 4.5625 C4.88625 3.92441406 3.7725 3.28632812 2.625 2.62890625 C1.75875 2.09136719 0.8925 1.55382812 0 1 C0 0.67 0 0.34 0 0 Z " fill="#4C2A2D" transform="translate(325,624)"/>
<path d="M0 0 C0.33 0.66 0.66 1.32 1 2 C0.34 2 -0.32 2 -1 2 C-1.12375 2.969375 -1.2475 3.93875 -1.375 4.9375 C-1.58125 5.948125 -1.7875 6.95875 -2 8 C-2.99 8.495 -2.99 8.495 -4 9 C-6.125 8.0625 -6.125 8.0625 -8 7 C-8 7.66 -8 8.32 -8 9 C-9.98 9 -11.96 9 -14 9 C-11.48367951 6.14015453 -8.66114447 4.58531178 -5.3125 2.8125 C-4.31863281 2.28269531 -3.32476563 1.75289063 -2.30078125 1.20703125 C-1.54152344 0.80871094 -0.78226563 0.41039062 0 0 Z " fill="#321015" transform="translate(620,438)"/>
<path d="M0 0 C0.99 0.33 1.98 0.66 3 1 C0.78045349 2.37257477 -1.44835409 3.72259151 -3.6875 5.0625 C-4.31333984 5.45244141 -4.93917969 5.84238281 -5.58398438 6.24414062 C-8.48562611 7.96081872 -10.43016297 9.03130973 -13.84375 8.84375 C-16.19003052 7.92564023 -17.40537562 6.93033478 -19 5 C-16.33333333 5 -13.66666667 5 -11 5 C-8.04096634 4.56162464 -5.95210451 3.41347111 -3.4375 1.875 C-2.303125 1.25625 -1.16875 0.6375 0 0 Z " fill="#DE2931" transform="translate(525,490)"/>
<path d="M0 0 C0.66 0.33 1.32 0.66 2 1 C-1.61726977 3.20048356 -5.244974 5.38313495 -8.875 7.5625 C-10.42380859 8.50512695 -10.42380859 8.50512695 -12.00390625 9.46679688 C-12.99003906 10.05654297 -13.97617187 10.64628906 -14.9921875 11.25390625 C-15.90339355 11.80377197 -16.81459961 12.3536377 -17.75341797 12.92016602 C-18.49479004 13.27651123 -19.23616211 13.63285645 -20 14 C-20.66 13.67 -21.32 13.34 -22 13 C-21.5 11.125 -21.5 11.125 -20 9 C-18.17380455 8.56036035 -16.34369538 8.13268697 -14.5 7.7734375 C-10.11343774 6.4163448 -6.39984721 3.80192881 -2.5390625 1.36328125 C-1.70117188 0.91339844 -0.86328125 0.46351563 0 0 Z " fill="#2C1110" transform="translate(471,355)"/>
<path d="M0 0 C0.66 0.33 1.32 0.66 2 1 C1.34 1.66 0.68 2.32 0 3 C0.66 4.32 1.32 5.64 2 7 C1.01 7.495 1.01 7.495 0 8 C-0.59296875 7.65195312 -1.1859375 7.30390625 -1.796875 6.9453125 C-4.02200468 5.72292106 -4.02200468 5.72292106 -6.578125 6.6796875 C-7.45984375 7.07414062 -8.3415625 7.46859375 -9.25 7.875 C-10.14203125 8.26429688 -11.0340625 8.65359375 -11.953125 9.0546875 C-12.62859375 9.36664063 -13.3040625 9.67859375 -14 10 C-14 9.34 -14 8.68 -14 8 C-11.7136988 6.63597957 -9.42178251 5.28365726 -7.125 3.9375 C-6.47402344 3.54755859 -5.82304687 3.15761719 -5.15234375 2.75585938 C-3.46934275 1.77555467 -1.73703801 0.88101568 0 0 Z " fill="#4E3133" transform="translate(412,351)"/>
<path d="M0 0 C4.56994601 -0.44198383 6.95407172 0.83488735 10.75 3.3125 C11.71421875 3.92738281 12.6784375 4.54226563 13.671875 5.17578125 C16 7 16 7 17 10 C13.25912846 8.58010715 9.76931806 6.90233408 6.25 5 C5.28578125 4.484375 4.3215625 3.96875 3.328125 3.4375 C1 2 1 2 0 0 Z " fill="#261515" transform="translate(529,306)"/>
<path d="M0 0 C4.875 2.75 4.875 2.75 6 5 C3.19184563 6.40407719 1.1575985 7 -2 7 C-2 6.34 -2 5.68 -2 5 C-3.32 4.67 -4.64 4.34 -6 4 C-5.67 3.01 -5.34 2.02 -5 1 C-3.35 1.33 -1.7 1.66 0 2 C0 1.34 0 0.68 0 0 Z " fill="#512D31" transform="translate(698,400)"/>
<path d="M0 0 C0 0.66 0 1.32 0 2 C1.65 1.67 3.3 1.34 5 1 C3.68884949 4.93345152 2.15787222 5.32374076 -1.4375 7.25 C-2.92056641 8.06210937 -2.92056641 8.06210937 -4.43359375 8.890625 C-5.28050781 9.25671875 -6.12742187 9.6228125 -7 10 C-7.66 9.67 -8.32 9.34 -9 9 C-3.25 5 -3.25 5 -1 5 C-1 4.34 -1 3.68 -1 3 C-2.32 2.34 -3.64 1.68 -5 1 C-2 0 -2 0 0 0 Z M-6 3 C-5.01 3.33 -4.02 3.66 -3 4 C-3.99 4.33 -4.98 4.66 -6 5 C-6 4.34 -6 3.68 -6 3 Z " fill="#301014" transform="translate(585,489)"/>
<path d="M0 0 C3.89169629 0.68010226 6.87181916 2.50899487 10.25 4.5 C11.32765625 5.1290625 12.4053125 5.758125 13.515625 6.40625 C14.74539063 7.19515625 14.74539063 7.19515625 16 8 C16 8.33 16 8.66 16 9 C12.37471432 9.20140476 10.13498292 8.85776765 7 7 C7 6.34 7 5.68 7 5 C6.401875 4.896875 5.80375 4.79375 5.1875 4.6875 C2.70470535 3.90719311 1.64939723 2.97927667 0 1 C0 0.67 0 0.34 0 0 Z " fill="#271617" transform="translate(453,696)"/>
<path d="M0 0 C5.75 1.75 5.75 1.75 8 4 C6.73461631 4.84158536 5.46246221 5.67299748 4.1875 6.5 C3.12595703 7.19609375 3.12595703 7.19609375 2.04296875 7.90625 C0 9 0 9 -3 9 C-2.67 8.01 -2.34 7.02 -2 6 C-0.35 5.67 1.3 5.34 3 5 C2.01 4.67 1.02 4.34 0 4 C-0.66 3.67 -1.32 3.34 -2 3 C-1.34 2.01 -0.68 1.02 0 0 Z " fill="#E02631" transform="translate(651,412)"/>
<path d="M0 0 C1.33333333 0.66666667 2.66666667 1.33333333 4 2 C4.680625 2.309375 5.36125 2.61875 6.0625 2.9375 C8 4 8 4 9.4375 5.5625 C11.49199044 7.45263121 13.27994277 7.6324247 16 8 C16 8.99 16 9.98 16 11 C11.46152802 9.65072455 7.68067754 7.80840652 3.625 5.375 C2.56539063 4.74335938 1.50578125 4.11171875 0.4140625 3.4609375 C-0.38257813 2.97882813 -1.17921875 2.49671875 -2 2 C-1.34 1.34 -0.68 0.68 0 0 Z " fill="#E42933" transform="translate(483,480)"/>
<path d="M0 0 C0.66 0.33 1.32 0.66 2 1 C1.2884375 1.5878125 1.2884375 1.5878125 0.5625 2.1875 C-1.35179633 4.40808374 -1.61266988 6.13375709 -2 9 C-7.75 7.125 -7.75 7.125 -10 6 C-8.3811004 4.96951963 -6.75467511 3.95085322 -5.125 2.9375 C-4.22007812 2.36902344 -3.31515625 1.80054688 -2.3828125 1.21484375 C-1.20332031 0.61349609 -1.20332031 0.61349609 0 0 Z " fill="#E02631" transform="translate(633,467)"/>
<path d="M0 0 C-1.6188996 1.03048037 -3.24532489 2.04914678 -4.875 3.0625 C-5.77992188 3.63097656 -6.68484375 4.19945312 -7.6171875 4.78515625 C-8.40351563 5.18605469 -9.18984375 5.58695312 -10 6 C-10.66 5.67 -11.32 5.34 -12 5 C-12 3.68 -12 2.36 -12 1 C-10.37681021 0.63762737 -8.7513642 0.28534843 -7.125 -0.0625 C-6.22007812 -0.25972656 -5.31515625 -0.45695312 -4.3828125 -0.66015625 C-2 -1 -2 -1 0 0 Z " fill="#341013" transform="translate(421,386)"/>
<path d="M0 0 C5.31027254 1.46032495 9.46330032 3.98320986 14 7 C11.39902318 8.30048841 8.86044938 8.56471422 6 9 C6.33 8.01 6.66 7.02 7 6 C5.68 6.33 4.36 6.66 3 7 C3 5.68 3 4.36 3 3 C1.5833253 1.2488427 1.5833253 1.2488427 0 0 Z " fill="#311112" transform="translate(454,661)"/>
<path d="M0 0 C0.33 0.66 0.66 1.32 1 2 C-3.20400932 6.68908732 -7.77121774 9.08400261 -14 10 C-14 9.34 -14 8.68 -14 8 C-9.38 5.36 -4.76 2.72 0 0 Z " fill="#362021" transform="translate(389,364)"/>
<path d="M0 0 C1.65 0.33 3.3 0.66 5 1 C2.72254211 3.48982535 0.37664762 5.10368997 -2.5625 6.75 C-3.34753906 7.19859375 -4.13257813 7.6471875 -4.94140625 8.109375 C-5.62074219 8.40328125 -6.30007813 8.6971875 -7 9 C-7.66 8.67 -8.32 8.34 -9 8 C-8.01 7.67 -7.02 7.34 -6 7 C-6 6.34 -6 5.68 -6 5 C-6.66 4.67 -7.32 4.34 -8 4 C-4.535 3.505 -4.535 3.505 -1 3 C-0.67 2.01 -0.34 1.02 0 0 Z " fill="#E12732" transform="translate(586,453)"/>
<path d="M0 0 C0.598125 0.165 1.19625 0.33 1.8125 0.5 C4.11344336 1.1114124 4.11344336 1.1114124 7 1 C9.00309329 1.31421071 11.00371336 1.6451046 13 2 C12.34 3.32 11.68 4.64 11 6 C11.99 6.33 12.98 6.66 14 7 C13.01 7.495 13.01 7.495 12 8 C9.1796875 6.6015625 9.1796875 6.6015625 5.875 4.625 C4.77929688 3.97789062 3.68359375 3.33078125 2.5546875 2.6640625 C1.71164062 2.11492187 0.86859375 1.56578125 0 1 C0 0.67 0 0.34 0 0 Z " fill="#301114" transform="translate(361,450)"/>
<path d="M0 0 C3.96 1.98 3.96 1.98 8 4 C7.67 4.66 7.34 5.32 7 6 C7.33 6.99 7.66 7.98 8 9 C5.50907189 10.24546405 4.58919267 9.7767578 2 9 C2.226875 8.401875 2.45375 7.80375 2.6875 7.1875 C2.790625 6.465625 2.89375 5.74375 3 5 C1.60411246 3.35405861 1.60411246 3.35405861 0 2 C0 1.34 0 0.68 0 0 Z " fill="#48272A" transform="translate(552,317)"/>
<path d="M0 0 C0.0825 0.61875 0.165 1.2375 0.25 1.875 C0.81258459 4.18437567 0.81258459 4.18437567 3.0625 5.25 C3.701875 5.4975 4.34125 5.745 5 6 C2 7 2 7 -0.26171875 6.00390625 C-1.06222656 5.52824219 -1.86273438 5.05257812 -2.6875 4.5625 C-3.49574219 4.08941406 -4.30398438 3.61632812 -5.13671875 3.12890625 C-5.75160156 2.75636719 -6.36648438 2.38382813 -7 2 C-4 0 -4 0 0 0 Z " fill="#361D1F" transform="translate(393,658)"/>
<path d="M0 0 C0.804375 0.309375 1.60875 0.61875 2.4375 0.9375 C6.62249087 2.18565517 10.66306101 2.6337696 15 3 C15 3.66 15 4.32 15 5 C13.41705218 5.05437607 11.83355744 5.09296271 10.25 5.125 C9.36828125 5.14820313 8.4865625 5.17140625 7.578125 5.1953125 C4.83110453 4.98720489 3.27112497 4.54477419 1 3 C0.67 2.01 0.34 1.02 0 0 Z " fill="#140405" transform="translate(502,724)"/>
<path d="M0 0 C0.66 0.33 1.32 0.66 2 1 C1.01 1.33 0.02 1.66 -1 2 C-1.33 2.99 -1.66 3.98 -2 5 C-4.72265625 6.82421875 -4.72265625 6.82421875 -8.0625 8.6875 C-9.71958984 9.62142578 -9.71958984 9.62142578 -11.41015625 10.57421875 C-12.26480469 11.04472656 -13.11945312 11.51523437 -14 12 C-14.33 11.34 -14.66 10.68 -15 10 C-12.03 8.35 -9.06 6.7 -6 5 C-6 4.34 -6 3.68 -6 3 C-4.03533587 1.93224776 -2.03144641 0.93446535 0 0 Z " fill="#3F2B2D" transform="translate(620,667)"/>
<path d="M0 0 C-1.95245185 1.19714555 -3.91214997 2.38248074 -5.875 3.5625 C-6.96554687 4.22378906 -8.05609375 4.88507813 -9.1796875 5.56640625 C-10.57574219 6.27603516 -10.57574219 6.27603516 -12 7 C-12.66 6.67 -13.32 6.34 -14 6 C-10.04805212 1.59205813 -6.01919869 -1.90694441 0 0 Z " fill="#1F0C0D" transform="translate(502,303)"/>
<path d="M0 0 C4.8274799 1.41292095 8.7162359 3.42974154 13 6 C10 7 10 7 6 7 C6 6.34 6 5.68 6 5 C4.35 6.32 2.7 7.64 1 9 C1 5 1 5 3 3 C2.01 2.01 1.02 1.02 0 0 Z " fill="#340D13" transform="translate(386,622)"/>
<path d="M0 0 C-2.07937949 1.31914392 -4.16308019 2.63038213 -6.25 3.9375 C-6.83652344 4.31068359 -7.42304688 4.68386719 -8.02734375 5.06835938 C-10.95906265 6.8965661 -13.55480229 8.46275382 -17 9 C-14.63202009 6.38275905 -12.10399646 4.67138271 -9 3 C-8.34 3 -7.68 3 -7 3 C-7 2.34 -7 1.68 -7 1 C-7.66 0.67 -8.32 0.34 -9 0 C-2.25 -1.125 -2.25 -1.125 0 0 Z " fill="#2B0E11" transform="translate(393,402)"/>
<path d="M0 0 C2.475 0.495 2.475 0.495 5 1 C5 1.66 5 2.32 5 3 C7.31 3.33 9.62 3.66 12 4 C12.33 4.99 12.66 5.98 13 7 C15.00016466 8.20882096 15.00016466 8.20882096 17 9 C16.01 9.495 16.01 9.495 15 10 C12.56340474 8.80385323 10.26997589 7.56187014 7.9375 6.1875 C7.28716797 5.81818359 6.63683594 5.44886719 5.96679688 5.06835938 C1.1334707 2.26694139 1.1334707 2.26694139 0 0 Z " fill="#2D1011" transform="translate(612,388)"/>
<path d="M0 0 C1.2065625 0.495 1.2065625 0.495 2.4375 1 C-1.21507751 2.21752584 -4.27452922 2.02957396 -8.08984375 1.9375 C-10.41976329 1.99639212 -12.33703018 2.33907161 -14.5625 3 C-14.5625 2.01 -14.5625 1.02 -14.5625 0 C-10.13720667 -2.21264666 -4.59723859 -1.29045294 0 0 Z " fill="#18090A" transform="translate(517.5625,299)"/>
<path d="M0 0 C4.60428934 1.31551124 8.18320388 3.09196486 12 6 C12 6.66 12 7.32 12 8 C10.02 7.34 8.04 6.68 6 6 C5.34 6.66 4.68 7.32 4 8 C1.875 7.625 1.875 7.625 0 7 C0.99 6.67 1.98 6.34 3 6 C3.33218192 2.99740483 3.33218192 2.99740483 1.5 1.3125 C1.005 0.879375 0.51 0.44625 0 0 Z " fill="#2D1212" transform="translate(400,630)"/>
<path d="M0 0 C2.64 0 5.28 0 8 0 C5.6067214 2.61371215 3.01602954 4.40088665 0 6.25 C-1.299375 7.06210937 -1.299375 7.06210937 -2.625 7.890625 C-5 9 -5 9 -8 8 C-7.4225 7.67386719 -6.845 7.34773437 -6.25 7.01171875 C-5.5075 6.57472656 -4.765 6.13773438 -4 5.6875 C-3.2575 5.25824219 -2.515 4.82898438 -1.75 4.38671875 C-1.1725 3.92910156 -0.595 3.47148438 0 3 C0 2.01 0 1.02 0 0 Z " fill="#2D1010" transform="translate(545,512)"/>
<path d="M0 0 C2.9375 1.25 2.9375 1.25 6 3 C6.875 5.1875 6.875 5.1875 7 7 C8.65 7.33 10.3 7.66 12 8 C11.01 8.495 11.01 8.495 10 9 C9.34 8.67 8.68 8.34 8 8 C7.67 8.66 7.34 9.32 7 10 C7 9.34 7 8.68 7 8 C6.34 7.67 5.68 7.34 5 7 C2.375 5.125 2.375 5.125 0 3 C0 2.01 0 1.02 0 0 Z " fill="#250E0F" transform="translate(590,339)"/>
<path d="M0 0 C-4.29 2.31 -8.58 4.62 -13 7 C-13 5.68 -13 4.36 -13 3 C-11.40084119 2.30093058 -9.79544955 1.61610532 -8.1875 0.9375 C-7.29417969 0.55464844 -6.40085937 0.17179688 -5.48046875 -0.22265625 C-3 -1 -3 -1 0 0 Z " fill="#5B4A4A" transform="translate(577,696)"/>
<path d="M0 0 C0.66 0.33 1.32 0.66 2 1 C0.71186658 1.83878455 -0.58063256 2.67086783 -1.875 3.5 C-2.59429688 3.9640625 -3.31359375 4.428125 -4.0546875 4.90625 C-6 6 -6 6 -8 6 C-8.33 6.99 -8.66 7.98 -9 9 C-10.98 9.33 -12.96 9.66 -15 10 C-12.0761589 6.81980317 -9.16598831 4.74648691 -5.375 2.6875 C-4.41335938 2.15511719 -3.45171875 1.62273438 -2.4609375 1.07421875 C-1.64882813 0.71972656 -0.83671875 0.36523438 0 0 Z " fill="#0F0101" transform="translate(613,671)"/>
<path d="M0 0 C0.33 0.99 0.66 1.98 1 3 C-3.21683811 5.8990762 -7.06866002 6.91343356 -12 8 C-9.69716746 5.45868642 -7.32686207 3.92889705 -4.3125 2.3125 C-3.50425781 1.87550781 -2.69601562 1.43851563 -1.86328125 0.98828125 C-1.24839844 0.66214844 -0.63351562 0.33601562 0 0 Z " fill="#200B0B" transform="translate(655,647)"/>
<path d="M0 0 C1 2 2 4 3 6 C1.68 6 0.36 6 -1 6 C-1.33 6.66 -1.66 7.32 -2 8 C-3.32 6.35 -4.64 4.7 -6 3 C-4.02 2.67 -2.04 2.34 0 2 C0 1.34 0 0.68 0 0 Z " fill="#4F2D2F" transform="translate(325,616)"/>
<path d="M0 0 C-2.79716804 3.29078593 -6.19528578 5.06305458 -10 7 C-10.66 6.67 -11.32 6.34 -12 6 C-10.68 4.68 -9.36 3.36 -8 2 C-8.33 1.34 -8.66 0.68 -9 0 C-5.93109813 -1.53445094 -3.29905734 -0.54984289 0 0 Z " fill="#2E1014" transform="translate(604,483)"/>
<path d="M0 0 C1.58624235 0.42683239 3.1689098 0.86696158 4.75 1.3125 C6.07257813 1.67794922 6.07257813 1.67794922 7.421875 2.05078125 C10.05772505 3.02125331 11.85407326 4.21005644 14 6 C13.67 6.99 13.34 7.98 13 9 C11.3925672 8.06811119 9.78917201 7.12925565 8.1875 6.1875 C6.84751953 5.40439453 6.84751953 5.40439453 5.48046875 4.60546875 C3.33168013 3.21467801 1.70638383 1.8877934 0 0 Z " fill="#4E393A" transform="translate(407,671)"/>
<path d="M0 0 C4.29 2.31 8.58 4.62 13 7 C12.67 7.66 12.34 8.32 12 9 C9.97954558 8.39816251 7.97888961 7.72693904 6 7 C5.67 6.34 5.34 5.68 5 5 C2.97536745 4.34786708 2.97536745 4.34786708 1 4 C0.67 2.68 0.34 1.36 0 0 Z " fill="#4F3A3C" transform="translate(596,342)"/>
<path d="M0 0 C-6.93 3.465 -6.93 3.465 -14 7 C-14 5 -14 5 -12.4375 3 C-8.59377958 -0.15382189 -4.79277258 -1.59759086 0 0 Z " fill="#584446" transform="translate(591,688)"/>
<path d="M0 0 C-3.01887244 3.48331435 -5.56909529 4.79157144 -10 6 C-10 4.68 -10 3.36 -10 2 C-6.49223216 0.39644899 -3.85645121 -0.22036864 0 0 Z " fill="#2E1011" transform="translate(635,465)"/>
<path d="M0 0 C0.66 0.33 1.32 0.66 2 1 C-0.33333333 3.33333333 -2.66666667 5.66666667 -5 8 C-5.33 7.34 -5.66 6.68 -6 6 C-7.98 6.99 -7.98 6.99 -10 8 C-8.7820245 4.34607349 -7.85603494 4.04168301 -4.5625 2.25 C-3.75941406 1.80140625 -2.95632813 1.3528125 -2.12890625 0.890625 C-1.07509766 0.44976562 -1.07509766 0.44976562 0 0 Z " fill="#E42832" transform="translate(453,367)"/>
<path d="M0 0 C0.66 0.33 1.32 0.66 2 1 C-1.49087093 5.0042343 -3.64951939 6.62671065 -9 7 C-9 6.34 -9 5.68 -9 5 C-7.54735962 4.1361871 -6.0876837 3.28419546 -4.625 2.4375 C-3.40683594 1.72400391 -3.40683594 1.72400391 -2.1640625 0.99609375 C-1.44992187 0.66738281 -0.73578125 0.33867187 0 0 Z " fill="#493536" transform="translate(487,308)"/>
<path d="M0 0 C3.96 1.98 3.96 1.98 8 4 C7 6 7 6 5 9 C4.01 8.67 3.02 8.34 2 8 C2.66 8 3.32 8 4 8 C3.25621612 5.02329237 3.25621612 5.02329237 1.4375 3.4375 C0.963125 2.963125 0.48875 2.48875 0 2 C0 1.34 0 0.68 0 0 Z " fill="#492E30" transform="translate(524,301)"/>
<path d="M0 0 C2.2109885 0.42793326 3.98119242 0.99059621 6 2 C6.33 1.34 6.66 0.68 7 0 C7.66 0.33 8.32 0.66 9 1 C9 1.66 9 2.32 9 3 C8.34 3.66 7.68 4.32 7 5 C3.63060567 4.66306057 1.57089417 3.11180592 -1 1 C-0.67 0.67 -0.34 0.34 0 0 Z " fill="#472F30" transform="translate(423,679)"/>
<path d="M0 0 C0.66 0.33 1.32 0.66 2 1 C0.7934375 1.4021875 0.7934375 1.4021875 -0.4375 1.8125 C-1.283125 2.204375 -2.12875 2.59625 -3 3 C-3.33 3.99 -3.66 4.98 -4 6 C-5.84765625 6.73046875 -5.84765625 6.73046875 -8.0625 7.1875 C-8.79597656 7.34605469 -9.52945313 7.50460937 -10.28515625 7.66796875 C-11.13400391 7.83232422 -11.13400391 7.83232422 -12 8 C-9.72254211 5.51017465 -7.37664762 3.89631003 -4.4375 2.25 C-3.65246094 1.80140625 -2.86742187 1.3528125 -2.05859375 0.890625 C-1.37925781 0.59671875 -0.69992187 0.3028125 0 0 Z " fill="#130202" transform="translate(669,639)"/>
<path d="M0 0 C2.475 0.99 2.475 0.99 5 2 C4.67 3.65 4.34 5.3 4 7 C2.02 6.34 0.04 5.68 -2 5 C-1.34 4.34 -0.68 3.68 0 3 C0 2.01 0 1.02 0 0 Z " fill="#502B2E" transform="translate(363,641)"/>
<path d="M0 0 C1.98 0.66 3.96 1.32 6 2 C6.33 3.65 6.66 5.3 7 7 C4.03 6.505 4.03 6.505 1 6 C1 4.68 1 3.36 1 2 C0.67 1.34 0.34 0.68 0 0 Z " fill="#341112" transform="translate(505,496)"/>
<path d="M0 0 C0.33 0.66 0.66 1.32 1 2 C0.34 2 -0.32 2 -1 2 C-1.33 2.99 -1.66 3.98 -2 5 C-4.28515625 5.94921875 -4.28515625 5.94921875 -7.0625 6.6875 C-8.44115234 7.06455078 -8.44115234 7.06455078 -9.84765625 7.44921875 C-10.55792969 7.63097656 -11.26820313 7.81273437 -12 8 C-9.69716746 5.45868642 -7.32686207 3.92889705 -4.3125 2.3125 C-3.50425781 1.87550781 -2.69601562 1.43851562 -1.86328125 0.98828125 C-1.24839844 0.66214844 -0.63351562 0.33601563 0 0 Z " fill="#E5272E" transform="translate(649,458)"/>
<path d="M0 0 C0.99 0.33 1.98 0.66 3 1 C5.14255793 0.61067144 5.14255793 0.61067144 7 0 C4.19527484 3.29967665 0.83081791 5.08459104 -3 7 C-3.99 6.67 -4.98 6.34 -6 6 C-3.94766315 3.7522025 -2.99332739 2.9977758 0 2 C0 1.34 0 0.68 0 0 Z " fill="#2F0F11" transform="translate(648,454)"/>
<path d="M0 0 C0.36275695 4.47400242 0.36275695 4.47400242 -1.25 6.8125 C-3 8 -3 8 -7 8 C-6 5 -6 5 -3.9375 3.8125 C-3.298125 3.544375 -2.65875 3.27625 -2 3 C-2.66 2.34 -3.32 1.68 -4 1 C-2 0 -2 0 0 0 Z " fill="#4B2428" transform="translate(503,300)"/>
<path d="M0 0 C4.60853797 0.72008406 8.67237409 2.31295939 13 4 C12.67 5.32 12.34 6.64 12 8 C8 5.33333333 4 2.66666667 0 0 Z " fill="#4F383B" transform="translate(441,691)"/>
<path d="M0 0 C2.31 0.33 4.62 0.66 7 1 C3.4912812 4.09592835 0.50802601 5.74194623 -4 7 C-3.34 6.401875 -2.68 5.80375 -2 5.1875 C0.3373846 3.12498166 0.3373846 3.12498166 0 0 Z " fill="#2E1212" transform="translate(529,521)"/>
<path d="M0 0 C2.31 0.33 4.62 0.66 7 1 C5.06745228 3.0245738 3.36841312 4.42105792 1 6 C0.01 5.67 -0.98 5.34 -2 5 C-1.34 5 -0.68 5 0 5 C0 3.35 0 1.7 0 0 Z " fill="#E02731" transform="translate(595,641)"/>
<path d="M0 0 C0.66 0.33 1.32 0.66 2 1 C0.71475739 1.86380259 -0.57842419 2.71580369 -1.875 3.5625 C-2.59429688 4.03816406 -3.31359375 4.51382812 -4.0546875 5.00390625 C-4.69664062 5.33261719 -5.33859375 5.66132813 -6 6 C-6.66 5.67 -7.32 5.34 -8 5 C-7.34 3.68 -6.68 2.36 -6 1 C-4.7934375 1.0309375 -4.7934375 1.0309375 -3.5625 1.0625 C-1.06645115 1.29633621 -1.06645115 1.29633621 0 0 Z " fill="#2C1014" transform="translate(563,505)"/>
<path d="M0 0 C4.61513112 1.31860889 8.09897612 3.21355437 12 6 C9.53721199 7.231394 7.7204945 7.07159196 5 7 C4.67 6.34 4.34 5.68 4 5 C4.33 4.34 4.66 3.68 5 3 C2.525 2.01 2.525 2.01 0 1 C0 0.67 0 0.34 0 0 Z " fill="#290F13" transform="translate(459,470)"/>
<path d="M0 0 C2.66666667 0 5.33333333 0 8 0 C8.33 0.99 8.66 1.98 9 3 C7.8553125 2.6596875 7.8553125 2.6596875 6.6875 2.3125 C5.800625 2.209375 4.91375 2.10625 4 2 C2.1645201 3.33378575 2.1645201 3.33378575 1 5 C0.01 4.67 -0.98 4.34 -2 4 C-1.34 2.68 -0.68 1.36 0 0 Z " fill="#2E0B0D" transform="translate(667,387)"/>
<path d="M0 0 C0.886875 -0.01417969 1.77375 -0.02835937 2.6875 -0.04296875 C5 0.1875 5 0.1875 7 2.1875 C5.14536523 2.1875 3.28993212 2.15286254 1.4375 2.0625 C-1.18314627 1.92400326 -1.18314627 1.92400326 -3 4.1875 C-4.32 3.1975 -5.64 2.2075 -7 1.1875 C-4.52224905 -0.05137548 -2.76346293 0.02008331 0 0 Z " fill="#48171B" transform="translate(512,299.8125)"/>
<path d="M0 0 C-3.96 1.98 -7.92 3.96 -12 6 C-11 2 -11 2 -9.2578125 0.91796875 C-8.55398438 0.67691406 -7.85015625 0.43585937 -7.125 0.1875 C-6.42632813 -0.06644531 -5.72765625 -0.32039062 -5.0078125 -0.58203125 C-3 -1 -3 -1 0 0 Z " fill="#5E4A4A" transform="translate(692,630)"/>
<path d="M0 0 C0.53625 0.226875 1.0725 0.45375 1.625 0.6875 C-2.59183811 3.5865762 -6.44366002 4.60093356 -11.375 5.6875 C-8.45877964 2.28524292 -4.62034368 -0.60793996 0 0 Z " fill="#453132" transform="translate(350.375,388.3125)"/>
<path d="M0 0 C0.33 0.66 0.66 1.32 1 2 C0.34 2.66 -0.32 3.32 -1 4 C-1.33 4.66 -1.66 5.32 -2 6 C-4.64860427 6.59355614 -7.29197322 6.74209269 -10 7 C-7.0094833 3.66442368 -4.06815373 1.84916079 0 0 Z " fill="#E22832" transform="translate(441,374)"/>
<path d="M0 0 C1.98 0.66 3.96 1.32 6 2 C5.67 3.65 5.34 5.3 5 7 C3.0625 6.625 3.0625 6.625 1 6 C0.67 5.34 0.34 4.68 0 4 C0.99 3.67 1.98 3.34 3 3 C2.01 2.01 1.02 1.02 0 0 Z " fill="#452123" transform="translate(584,336)"/>
<path d="M0 0 C6.75 0.75 6.75 0.75 9 3 C9 3.66 9 4.32 9 5 C5.22454612 3.90931332 2.52956528 3.0916909 0 0 Z " fill="#473334" transform="translate(487,717)"/>
<path d="M0 0 C0.598125 0.350625 1.19625 0.70125 1.8125 1.0625 C1.8125 1.7225 1.8125 2.3825 1.8125 3.0625 C-3.9375 4.1875 -3.9375 4.1875 -6.1875 3.0625 C-5.8575 2.0725 -5.5275 1.0825 -5.1875 0.0625 C-2.1875 -0.9375 -2.1875 -0.9375 0 0 Z " fill="#4A2326" transform="translate(489.1875,712.9375)"/>
<path d="M0 0 C6.75 0.75 6.75 0.75 9 3 C8.67 3.99 8.34 4.98 8 6 C6.66402348 5.19185349 5.331275 4.37836819 4 3.5625 C3.2575 3.11003906 2.515 2.65757812 1.75 2.19140625 C1.1725 1.79824219 0.595 1.40507813 0 1 C0 0.67 0 0.34 0 0 Z " fill="#503F3F" transform="translate(466,705)"/>
<path d="M0 0 C2.79651501 1.46817038 3.43411431 2.40553901 4.5 5.3125 C0.72454612 4.22181332 -1.97043472 3.4041909 -4.5 0.3125 C-2.5 -0.6875 -2.5 -0.6875 0 0 Z " fill="#2E1A1B" transform="translate(650.5,372.6875)"/>
<path d="M0 0 C0.53625 0.268125 1.0725 0.53625 1.625 0.8125 C0.84125 1.06 0.0575 1.3075 -0.75 1.5625 C-3.69817108 2.96639099 -4.2774777 3.81925737 -5.375 6.8125 C-6.365 6.1525 -7.355 5.4925 -8.375 4.8125 C-2.95961538 -0.23365385 -2.95961538 -0.23365385 0 0 Z " fill="#1C0608" transform="translate(446.375,333.1875)"/>
<path d="M0 0 C0.433125 0.9590625 0.433125 0.9590625 0.875 1.9375 C1.82823451 4.15206079 1.82823451 4.15206079 4 5 C2.35 5.66 0.7 6.32 -1 7 C-1.5534764 4.92446352 -2 3.15634036 -2 1 C-1.34 0.67 -0.68 0.34 0 0 Z " fill="#330D10" transform="translate(523,301)"/>
<path d="M0 0 C1.22589844 0.01353516 1.22589844 0.01353516 2.4765625 0.02734375 C3.41628906 0.04474609 3.41628906 0.04474609 4.375 0.0625 C2.725 1.3825 1.075 2.7025 -0.625 4.0625 C-0.955 3.4025 -1.285 2.7425 -1.625 2.0625 C-3.275 2.3925 -4.925 2.7225 -6.625 3.0625 C-6.625 2.4025 -6.625 1.7425 -6.625 1.0625 C-4.21954362 -0.14022819 -2.67503047 -0.03821472 0 0 Z " fill="#5B3C3D" transform="translate(598.625,679.9375)"/>
<path d="M0 0 C-3.19990508 2.74277578 -6.00499382 4.6302836 -10 6 C-10 5.34 -10 4.68 -10 4 C-6.68165449 0.77646436 -4.65842688 -0.53239164 0 0 Z " fill="#5E4D4F" transform="translate(702,623)"/>
<path d="M0 0 C4.67692308 1.47692308 4.67692308 1.47692308 6.3125 4.125 C6.539375 4.74375 6.76625 5.3625 7 6 C1.25 4.375 1.25 4.375 -1 1 C-0.67 0.67 -0.34 0.34 0 0 Z " fill="#2D1B1C" transform="translate(632,363)"/>
<path d="M0 0 C0.99 0.33 1.98 0.66 3 1 C3.35412344 2.32796291 3.68521554 3.66216607 4 5 C5.47890069 6.73026102 5.47890069 6.73026102 7 8 C6.34 8.66 5.68 9.32 5 10 C5 9.01 5 8.02 5 7 C3.35 6.67 1.7 6.34 0 6 C0 4.02 0 2.04 0 0 Z " fill="#4E292B" transform="translate(629,361)"/>
<path d="M0 0 C3.96 1.98 3.96 1.98 8 4 C8 4.66 8 5.32 8 6 C5.125 5.8125 5.125 5.8125 2 5 C0.625 2.4375 0.625 2.4375 0 0 Z " fill="#3E2929" transform="translate(575,330)"/>
<path d="M0 0 C2.875 0.6875 2.875 0.6875 6 2 C7.375 4.625 7.375 4.625 8 7 C1.125 3.375 1.125 3.375 0 0 Z " fill="#311C1D" transform="translate(495,720)"/>
<path d="M0 0 C2.97 0.99 5.94 1.98 9 3 C9 3.66 9 4.32 9 5 C9.66 5 10.32 5 11 5 C10.67 5.66 10.34 6.32 10 7 C8.33073546 6.02526874 6.66464358 5.04510211 5 4.0625 C4.071875 3.51722656 3.14375 2.97195313 2.1875 2.41015625 C1.465625 1.94480469 0.74375 1.47945312 0 1 C0 0.67 0 0.34 0 0 Z " fill="#4C3B3C" transform="translate(430,684)"/>
<path d="M0 0 C0.66 0.33 1.32 0.66 2 1 C2.625 3.5625 2.625 3.5625 3 6 C-2.75 4.125 -2.75 4.125 -5 3 C-2.625 1.4375 -2.625 1.4375 0 0 Z " fill="#2E1111" transform="translate(537,680)"/>
<path d="M0 0 C0.33 0.66 0.66 1.32 1 2 C-0.45264038 2.8638129 -1.9123163 3.71580454 -3.375 4.5625 C-4.59316406 5.27599609 -4.59316406 5.27599609 -5.8359375 6.00390625 C-6.55007813 6.33261719 -7.26421875 6.66132813 -8 7 C-8.66 6.67 -9.32 6.34 -10 6 C-6.7 4.02 -3.4 2.04 0 0 Z " fill="#2D0F13" transform="translate(604,447)"/>
<path d="M0 0 C-0.33 0.99 -0.66 1.98 -1 3 C-3.64 3.33 -6.28 3.66 -9 4 C-8.67 3.01 -8.34 2.02 -8 1 C-2.25 0 -2.25 0 0 0 Z " fill="#2F1112" transform="translate(674,443)"/>
<path d="M0 0 C4.51478398 0.53115106 7.34666857 2.36620292 11 5 C8 6 8 6 5.95703125 5.0390625 C5.24933594 4.57242187 4.54164063 4.10578125 3.8125 3.625 C3.09707031 3.16351563 2.38164063 2.70203125 1.64453125 2.2265625 C1.10183594 1.82179688 0.55914063 1.41703125 0 1 C0 0.67 0 0.34 0 0 Z " fill="#2D0F10" transform="translate(629,398)"/>
<path d="M0 0 C0.33 0.66 0.66 1.32 1 2 C0 4 0 4 -2.28515625 4.8515625 C-3.65994141 5.23441406 -3.65994141 5.23441406 -5.0625 5.625 C-5.98160156 5.88539063 -6.90070313 6.14578125 -7.84765625 6.4140625 C-8.55792969 6.60742188 -9.26820313 6.80078125 -10 7 C-7.02211505 3.8022097 -3.81486577 2.08737938 0 0 Z " fill="#5D4647" transform="translate(466,320)"/>
<path d="M0 0 C0.66 0.33 1.32 0.66 2 1 C0.25 3 0.25 3 -2 5 C-3.32 5 -4.64 5 -6 5 C-6 4.34 -6 3.68 -6 3 C-4.03533587 1.93224776 -2.03144641 0.93446535 0 0 Z " fill="#483838" transform="translate(475,315)"/>
<path d="M0 0 C5.66153846 1.47692308 5.66153846 1.47692308 7.375 4.125 C7.684375 5.053125 7.684375 5.053125 8 6 C4.64532525 4.82133049 2.28780716 3.76945078 0 1 C0 0.67 0 0.34 0 0 Z " fill="#322022" transform="translate(474,708)"/>
<path d="M0 0 C-0.3125 1.875 -0.3125 1.875 -1 4 C-1.99 4.66 -2.98 5.32 -4 6 C-4 5.01 -4 4.02 -4 3 C-4.66 2.67 -5.32 2.34 -6 2 C-3 0 -3 0 0 0 Z " fill="#2E1213" transform="translate(655,614)"/>
<path d="M0 0 C0.99 0.33 1.98 0.66 3 1 C0.22920113 4.80984844 -3.62868145 5.06840752 -8 6 C-5.63055987 3.38114512 -3.16266898 1.58133449 0 0 Z " fill="#260E13" transform="translate(562,471)"/>
<path d="M0 0 C3.87132028 0.57352893 6.08172796 2.48704352 9 5 C5.625 4.75 5.625 4.75 2 4 C0.5625 1.9375 0.5625 1.9375 0 0 Z " fill="#E32932" transform="translate(372,458)"/>
<path d="M0 0 C0.33 0.66 0.66 1.32 1 2 C-1.97 2 -4.94 2 -8 2 C-8.33 1.34 -8.66 0.68 -9 0 C-5.49270578 -1.16909807 -3.55692677 -0.85056945 0 0 Z " fill="#340E11" transform="translate(373,420)"/>
<path d="M0 0 C3.96 1.98 3.96 1.98 8 4 C7.67 4.66 7.34 5.32 7 6 C4.0625 5.25 4.0625 5.25 1 4 C0.67 2.68 0.34 1.36 0 0 Z " fill="#5A494A" transform="translate(666,382)"/>
<path d="M0 0 C3.96 1.98 3.96 1.98 8 4 C7.67 4.99 7.34 5.98 7 7 C4.13302508 5.71480435 2.02392288 4.42870746 0 2 C0 1.34 0 0.68 0 0 Z " fill="#60494B" transform="translate(654,375)"/>
<path d="M0 0 C2.31 0.33 4.62 0.66 7 1 C7 1.99 7 2.98 7 4 C7.99 4.33 8.98 4.66 10 5 C9.01 5.495 9.01 5.495 8 6 C6.0546875 5.0390625 6.0546875 5.0390625 3.875 3.625 C3.15054688 3.16351563 2.42609375 2.70203125 1.6796875 2.2265625 C1.12539063 1.82179688 0.57109375 1.41703125 0 1 C0 0.67 0 0.34 0 0 Z " fill="#290F11" transform="translate(563,360)"/>
<path d="M0 0 C1 3 1 3 1 5 C-0.65 5.33 -2.3 5.66 -4 6 C-2.25 1.125 -2.25 1.125 0 0 Z " fill="#2F0B0D" transform="translate(425,345)"/>
<path d="M0 0 C0.66 0.33 1.32 0.66 2 1 C0.25 3 0.25 3 -2 5 C-3.32 5 -4.64 5 -6 5 C-6 4.34 -6 3.68 -6 3 C-4.03533587 1.93224776 -2.03144641 0.93446535 0 0 Z " fill="#433132" transform="translate(337,394)"/>
<path d="M0 0 C3.96 1.98 3.96 1.98 8 4 C7.67 4.99 7.34 5.98 7 7 C6.34 6.34 5.68 5.68 5 5 C2.93125966 4.3574765 2.93125966 4.3574765 1 4 C0.67 2.68 0.34 1.36 0 0 Z " fill="#533F40" transform="translate(675,387)"/>
<path d="M0 0 C0.66 0.33 1.32 0.66 2 1 C0.02579865 3.52259061 -0.96745642 3.9929808 -4.1875 4.6875 C-5.5796875 4.8421875 -5.5796875 4.8421875 -7 5 C-4.88437775 2.67281553 -2.94982021 1.14186589 0 0 Z " fill="#120202" transform="translate(542,712)"/>
<path d="M0 0 C3.77545388 1.09068668 6.47043472 1.9083091 9 5 C7.68 5 6.36 5 5 5 C5 4.34 5 3.68 5 3 C2.525 2.01 2.525 2.01 0 1 C0 0.67 0 0.34 0 0 Z " fill="#160202" transform="translate(373,650)"/>
<path d="M0 0 C-1.375 2 -1.375 2 -3 4 C-3.66 4 -4.32 4 -5 4 C-5.33 2.68 -5.66 1.36 -6 0 C-3.50907189 -1.24546405 -2.58919267 -0.7767578 0 0 Z " fill="#321113" transform="translate(649,619)"/>
<path d="M0 0 C0.99 0.33 1.98 0.66 3 1 C2 3 2 3 0.15234375 3.6328125 C-0.57855469 3.79523438 -1.30945313 3.95765625 -2.0625 4.125 C-2.79597656 4.29257812 -3.52945313 4.46015625 -4.28515625 4.6328125 C-4.85105469 4.75398438 -5.41695312 4.87515625 -6 5 C-2.25 1.125 -2.25 1.125 0 0 Z " fill="#E22A31" transform="translate(566,505)"/>
<path d="M0 0 C0.66 1.32 1.32 2.64 2 4 C-1 5 -1 5 -3.1875 4.0625 C-3.785625 3.711875 -4.38375 3.36125 -5 3 C-3.35 2.01 -1.7 1.02 0 0 Z " fill="#DE2B2F" transform="translate(591,491)"/>
<path d="M0 0 C-2.93828597 2.50298434 -5.17902761 3.46930939 -9 4 C-9 3.34 -9 2.68 -9 2 C-3.375 -1.125 -3.375 -1.125 0 0 Z " fill="#3F2427" transform="translate(384,370)"/>
<path d="M0 0 C3.96 1.98 3.96 1.98 8 4 C7.67 4.66 7.34 5.32 7 6 C4.0625 5.25 4.0625 5.25 1 4 C0.67 2.68 0.34 1.36 0 0 Z " fill="#4B3333" transform="translate(566,325)"/>
</svg>
